<svg version="1.2" xmlns="http://www.w3.org/2000/svg" viewBox="0 0 1552 751" width="1552" height="751"><style>.a{fill:#003865}</style><path fill-rule="evenodd" class="a" d="m206.8 204c-56.4 0-102-45.6-102-102 0-56.4 45.6-102 102-102 56.4 0 102 45.6 102 102 0 56.4-45.6 102-102 102zm50.8-102c0-28.1-22.7-50.8-50.8-50.8-28.1 0-50.8 22.7-50.8 50.8 0 28.1 22.7 50.8 50.8 50.8 28.1 0 50.8-22.7 50.8-50.8z"/><path fill-rule="evenodd" class="a" d="m206.8 750c-56.3 0-102-45.8-102-102 0-15.5 3.4-30.5 10.2-44.4 12.7-26.4 64.7-104.2 70.6-113l21.3-31.9 21.4 31.9c5.8 8.8 57.8 86.6 70.6 113 6.6 13.9 10.1 28.8 10.1 44.4 0 56.3-45.8 102-102 102zm0-198.6c-17.9 27.5-39.3 61.1-45.6 74.5-3.3 6.8-5 14.3-5 22 0 28 22.8 50.8 50.8 50.8 27.9 0 50.7-22.8 50.7-50.8 0-7.7-1.7-15.2-4.9-22-6.5-13.4-27.8-47-45.7-74.5z"/><path fill-rule="evenodd" class="a" d="m413.1 147.4c0.1 6.5 1.3 45.2 0.5 110.3-0.8 71.9-43.9 129.1-120.6 157.1-16.4 6-110 33.1-151.7 48.3-46.2 16.8-104.9 45.2-105.5 45.5l-34.1 16.7c-0.3 0.2-0.9-0.1-0.9-0.6-0.1-6.5-1.3-45.2-0.5-110.3 0.8-71.9 43.8-129.1 120.6-157.1 16.4-6 110-33.1 151.7-48.3 46.1-16.8 104.6-45.1 105.1-45.5l34.3-16.7c0.4-0.2 0.9 0.6 0.9 0.6zm-49.4 78.4c0-0.4-0.4-0.8-0.9-0.6-21.3 9.6-48.5 21.5-73.3 30.5-43.3 15.8-136.8 42.9-151.7 48.3-56.9 20.8-88.1 60-88.1 110.5l0.3 32c0 0.5 0.4 0.8 0.9 0.6 21.3-9.6 48.5-21.4 73.3-30.5 43.3-15.8 136.9-42.8 151.8-48.3 56.8-20.7 88.1-60 88.1-110.4z"/><path class="a" d="m501.5 286.1h33.3v177.7h-33.3z"/><path class="a" d="m659.9 463.8l-67.5-109.1v109.1h-33.3v-177.7h29.7l67.5 108.9v-108.9h33.3v177.7z"/><path class="a" d="m814.8 463.8l-67.5-109.1v109.1h-33.2v-177.7h29.6l67.5 108.9v-108.9h33.3v177.7z"/><path class="a" d="m868.8 463.8v-177.7h112.3v30.9h-79v41.6h67.3v31h-67.3v43.2h79v30.9h-112.3z"/><path fill-rule="evenodd" class="a" d="m1094.5 463.8l-33.3-70.9h-23.9v70.9h-33.3v-177.7h66.8c34.7 0 55.3 24.7 55.3 54.4 0 24.9-14.6 40.4-31.2 46.7l38 76.6zm-57.2-99.9h31.4c14.6 0 24.2-9.7 24.2-23.4 0-13.8-9.6-23.5-24.2-23.5h-31.4z"/><path class="a" d="m1251 445.1c-13.7 14.8-29.9 20.2-48.1 20.2-18.2 0-34-7-45.9-19.5-17.3-18-16.8-40.2-16.8-70.9 0-30.7-0.5-52.9 16.8-70.9 11.9-12.5 26.8-19.5 45.9-19.5 39.5 0 59.6 27 64.2 56.9h-33.5c-3.9-16.7-13.7-26-30.7-26-9.2 0-16.5 3.8-21.3 9.5-6.5 7.5-8.2 15.7-8.2 49.9 0 34.2 1.7 42.7 8.2 50.2 4.7 5.8 12.1 9.3 21.3 9.3 10 0 18.2-3.8 23.7-10 5.5-6.5 7.7-14.4 7.7-23.7v-6.7h-31.4v-29h64.4v25.9c0 25.8-4.3 41.2-16.2 54.2z"/><path class="a" d="m1286.8 463.8v-177.7h112.3v30.9h-79v41.6h67.3v31h-67.3v43.2h79v30.9h-112.3z"/><path class="a" d="m1513.2 463.8l-33.1-62-32.8 62h-38.1l53-91.2-49.6-86.7h37.8l29.7 57.5 29.9-57.5h37.6l-49.6 86.7 53.2 91.2z"/></svg>